# xmcd
#
# Track frame offsets:
#	150
#	14549
#	26768
#	37604
#	50558
#	62211
#	75346
#	89385
#	101671
#	113334
#	123752
#	133726
#	145130
#	157225
#	174304
#	187339
#	198572
#	208264
#	220610
#	230702
#	241607
#	253422
#
# Disc length: 3647 seconds
#
# Revision: 1
# Processed by: cddbd v1.5.1PL2 Copyright (c) Steve Scherf et al.
# Submitted via: audiograbber 1.83.01
#
DISCID=380e3d16
DTITLE=Various Artist - Let's Dance CD 3
DYEAR=2001
DGENRE=Dance
TTITLE0=Douglas Gamley en zijn orkest - Ciribiribin (Weense Wals)
TTITLE1=The Romantic Strings and Orchestra - Blue Tango (Tango)
TTITLE2=Georges Jouvin en zijn orkest - Perfidia (Rumba)
TTITLE3=Gordon Langford en zijn orkest - Cucurucucu Paloma (Cha Cha Cha)
TTITLE4=Gordon Langford en zijn orkest - El Relicario (Paso Doble)
TTITLE5=Frank Chacksfield en zijn orkest - The Carousel Watz (Wals)
TTITLE6=The Starliners - Il Silenzio (Slow)
TTITLE7=Luiz Rodriguez en zijn orkest - Granada (Wals)
TTITLE8=Pable Mendez en zijn orkest - Guaglione (Mambo)
TTITLE9=Kenny King en zijn orkest - Sweet Georgia Brown (Charleston)
TTITLE10=Ambros Seelos en zijn orkest - Jeepers Creepers (Quickstep)
TTITLE11=André Brasseur, zijn orgel en orkest - The Happy Organ (Jive)
TTITLE12=Nino Nardini en zijn orkest - El Porompompero (Paso Doble)
TTITLE13=Claude Blouin en zijn orkest - Siboney (Wals)
TTITLE14=Georges Jouvin en zijn orkest - Birthday Waltz (Wals)
TTITLE15=Alan Braden en zijn orkest - Patricia (Cha CHa CHa )
TTITLE16=Pepe Leon en zijn orkest - Cielito Lindo (Wals)
TTITLE17=Ambros Seelos en zijn orkest - Quiéreme mucho (Rumba)
TTITLE18=Billy Vaughn en zijn orkest - Sail along Silvery Moon (Slow Foxtrot)
TTITLE19=Bob Wilson en zijn orkest - Charleston
TTITLE20=Hill Bowen en zijn orkest - The Loveliest Night of the Year (Wals)
TTITLE21=Larry Dalton en zijn orkest - Vaya con Dios (Wals)
EXTD=
EXTT0=unknown
EXTT1=unknown
EXTT2=Various Artists
EXTT3=Various Artists
EXTT4=Various Artists
EXTT5=Various Artists
EXTT6=Various Artists
EXTT7=Various Artists
EXTT8=Various Artists
EXTT9=Various Artists
EXTT10=Various Artists
EXTT11=Various Artists
EXTT12=Various Artists
EXTT13=Various Artists
EXTT14=Various Artists
EXTT15=Various Artists
EXTT16=Various Artists
EXTT17=Various Artists
EXTT18=Various Artists
EXTT19=Various Artists
EXTT20=Various Artists
EXTT21=Various Artists
PLAYORDER=
